<svg version="1.1" id="Layer_1" xmlns="http://www.w3.org/2000/svg" xmlns:xlink="http://www.w3.org/1999/xlink" x="0px" y="0px"
	 width="100%" viewBox="0 0 128 128" enable-background="new 0 0 128 128" xml:space="preserve">
<path fill="#010101" opacity="1.000000" stroke="none" 
	d="
M80.000000,129.000000 
	C53.333332,129.000000 27.166666,129.000000 1.000000,129.000000 
	C1.000000,86.333336 1.000000,43.666668 1.000000,1.000000 
	C43.666668,1.000000 86.333336,1.000000 129.000000,1.000000 
	C129.000000,43.666668 129.000000,86.333336 129.000000,129.000000 
	C112.833336,129.000000 96.666664,129.000000 80.000000,129.000000 
M64.081688,31.716827 
	C56.704552,31.783030 49.302181,31.525507 41.964478,32.097530 
	C39.518661,32.288197 37.238457,34.603367 34.423710,36.226990 
	C34.298092,36.555233 34.172474,36.883472 33.421017,37.355312 
	C32.811989,38.125412 32.202961,38.895512 31.187143,40.329941 
	C31.007391,55.108631 30.710152,69.887901 30.783331,84.665337 
	C30.793499,86.718323 32.630455,88.762260 33.958691,91.485207 
	C37.403019,93.158524 40.735786,95.902641 44.315598,96.275620 
	C51.142887,96.986954 58.111088,96.345825 65.929718,96.502251 
	C72.056938,96.531464 78.218422,96.958252 84.297958,96.434235 
	C87.705772,96.140488 90.977898,94.272522 94.827057,92.943779 
	C95.277466,92.391724 95.727875,91.839661 96.769920,90.880219 
	C97.805397,87.275238 99.603424,83.697647 99.734077,80.060165 
	C100.133911,68.927841 99.760307,57.770161 99.956718,46.627087 
	C100.057289,40.921543 98.067184,36.665348 92.760399,33.360920 
	C91.843353,32.970921 90.926315,32.580921 89.081200,32.026264 
	C81.057991,31.971842 73.034782,31.917419 64.081688,31.716827 
z"/>
<path fill="#AC2031" opacity="1.000000" stroke="none" 
	d="
M33.621735,90.810387 
	C32.630455,88.762260 30.793499,86.718323 30.783331,84.665337 
	C30.710152,69.887901 31.007391,55.108631 31.501024,40.089783 
	C31.814905,39.849621 32.034855,40.034489 32.026161,40.484711 
	C32.016815,43.945545 32.016171,46.956154 32.010704,50.426296 
	C32.006744,54.263481 32.007603,57.641136 32.006111,61.485462 
	C32.005718,68.203690 31.933851,74.456703 32.058155,80.705826 
	C32.091976,82.405907 31.359747,85.243347 35.314880,84.325989 
	C37.175331,84.730927 38.679321,84.999557 40.538887,85.422203 
	C45.957855,85.314247 51.021240,85.052284 56.512619,84.844559 
	C58.964550,84.968933 60.988491,85.039062 63.107147,85.366699 
	C63.746853,86.081070 64.291855,86.537941 64.910995,87.326294 
	C65.057686,88.103615 65.130249,88.549446 65.132370,89.322815 
	C64.988678,90.089073 64.915443,90.527794 64.383438,90.965424 
	C53.823696,90.913010 43.722713,90.861694 33.621735,90.810387 
z"/>
<path fill="#2168AE" opacity="1.000000" stroke="none" 
	d="
M93.032822,33.908661 
	C98.067184,36.665348 100.057289,40.921543 99.956718,46.627087 
	C99.760307,57.770161 100.133911,68.927841 99.734077,80.060165 
	C99.603424,83.697647 97.805397,87.275238 96.300827,90.779922 
	C95.218575,89.442841 94.605408,88.206055 93.986008,86.980759 
	C93.979767,86.992256 93.972664,86.970291 94.324883,86.949585 
	C95.778069,85.946571 96.879044,84.964264 97.975891,83.630157 
	C97.322876,82.188530 96.673988,81.098694 95.763031,79.812622 
	C94.897949,79.368195 94.294945,79.120018 93.729271,78.726807 
	C93.766609,78.581772 93.960197,78.353210 93.738098,78.093033 
	C93.153275,77.559517 92.790550,77.286163 92.217850,77.020226 
	C91.744461,76.931496 91.476929,76.848686 91.170609,76.431381 
	C91.106880,75.385674 91.077805,74.687790 91.399048,74.036682 
	C93.415489,74.923889 95.081604,75.764313 96.788589,76.625359 
	C99.109680,70.313370 98.390121,68.568100 93.063644,66.214279 
	C91.939957,65.717712 91.020058,64.759964 90.421623,64.009857 
	C97.614883,63.382347 98.010696,62.972290 98.026756,56.261799 
	C98.038177,51.487217 98.003113,46.712528 97.875244,41.627571 
	C96.185402,38.847725 94.609116,36.378193 93.032822,33.908661 
z"/>
<path fill="#C83040" opacity="1.000000" stroke="none" 
	d="
M33.790215,91.147797 
	C43.722713,90.861694 53.823696,90.913010 64.453049,91.098289 
	C64.992897,91.438568 65.065819,91.620201 65.129547,92.092789 
	C65.046204,93.694328 65.033501,94.980247 65.020790,96.266167 
	C58.111088,96.345825 51.142887,96.986954 44.315598,96.275620 
	C40.735786,95.902641 37.403019,93.158524 33.790215,91.147797 
z"/>
<path fill="#1F63B4" opacity="1.000000" stroke="none" 
	d="
M92.896614,33.634789 
	C94.609116,36.378193 96.185402,38.847725 97.483284,41.612480 
	C91.131371,40.439110 85.122841,38.417202 78.961838,37.693733 
	C74.756874,37.199955 70.338997,38.519394 65.885941,39.200649 
	C65.574051,39.598537 65.373344,39.805283 65.082695,39.662834 
	C64.946609,38.887062 64.881279,38.441856 64.885696,37.596340 
	C64.910454,36.116795 64.865456,35.037563 64.909210,33.989799 
	C64.997963,34.021267 65.183784,34.051956 65.640533,34.042725 
	C72.327057,34.023438 78.561478,34.143082 84.783661,33.920612 
	C86.543900,33.857674 88.268387,32.795059 90.009270,32.190922 
	C90.926315,32.580921 91.843353,32.970921 92.896614,33.634789 
z"/>
<path fill="#2A7ED1" opacity="1.000000" stroke="none" 
	d="
M65.475250,96.384209 
	C65.033501,94.980247 65.046204,93.694328 65.652832,92.137337 
	C69.382072,91.911911 72.521805,91.868065 75.651794,92.022125 
	C81.874420,92.328400 88.091682,92.743629 94.311165,93.113846 
	C90.977898,94.272522 87.705772,96.140488 84.297958,96.434235 
	C78.218422,96.958252 72.056938,96.531464 65.475250,96.384209 
z"/>
<path fill="#2572C4" opacity="1.000000" stroke="none" 
	d="
M94.569107,93.028809 
	C88.091682,92.743629 81.874420,92.328400 75.651794,92.022125 
	C72.521805,91.868065 69.382072,91.911911 65.723465,91.821716 
	C65.065819,91.620201 64.992897,91.438568 64.911804,91.099388 
	C64.915443,90.527794 64.988678,90.089073 65.587837,89.326965 
	C72.361580,89.003601 78.614296,89.140007 84.854095,88.916176 
	C86.606827,88.853302 88.321579,87.731934 90.446686,87.078506 
	C91.890503,87.030373 92.941376,86.999817 93.992249,86.969261 
	C94.605408,88.206055 95.218575,89.442841 96.005005,90.983612 
	C95.727875,91.839661 95.277466,92.391724 94.569107,93.028809 
z"/>
<path fill="#9E162B" opacity="1.000000" stroke="none" 
	d="
M34.046856,37.211716 
	C34.172474,36.883472 34.298092,36.555233 35.055496,36.069260 
	C45.124950,35.278404 54.562626,34.645279 63.751434,34.305534 
	C62.465706,35.043652 61.466068,35.727322 60.386131,35.895550 
	C51.275940,37.314709 42.151070,38.639656 33.146599,39.719738 
	C33.524006,38.701611 33.785431,37.956665 34.046856,37.211716 
z"/>
<path fill="#8F1326" opacity="1.000000" stroke="none" 
	d="
M64.000298,34.012154 
	C54.562626,34.645279 45.124950,35.278404 35.284912,35.929428 
	C37.238457,34.603367 39.518661,32.288197 41.964478,32.097530 
	C49.302181,31.525507 56.704552,31.783030 64.545914,32.157585 
	C65.068024,33.082882 65.125908,33.567421 65.183784,34.051956 
	C65.183784,34.051956 64.997963,34.021267 64.704140,34.002735 
	C64.410316,33.984203 64.000298,34.012154 64.000298,34.012154 
z"/>
<path fill="#1959AD" opacity="1.000000" stroke="none" 
	d="
M65.640533,34.042725 
	C65.125908,33.567421 65.068024,33.082882 65.010864,32.230671 
	C73.034782,31.917419 81.057991,31.971842 89.545235,32.108593 
	C88.268387,32.795059 86.543900,33.857674 84.783661,33.920612 
	C78.561478,34.143082 72.327057,34.023438 65.640533,34.042725 
z"/>
<path fill="#AC2031" opacity="1.000000" stroke="none" 
	d="
M33.733936,37.283516 
	C33.785431,37.956665 33.524006,38.701611 32.897503,39.730621 
	C32.532425,40.014687 32.034855,40.034489 32.034855,40.034489 
	C32.034855,40.034489 31.814905,39.849621 31.704418,39.757614 
	C32.202961,38.895512 32.811989,38.125412 33.733936,37.283516 
z"/>
<path fill="#B11B31" opacity="1.000000" stroke="none" 
	d="
M64.815941,37.996651 
	C64.881279,38.441856 64.946609,38.887062 64.997681,39.920887 
	C64.925850,40.681240 64.868279,40.852970 64.442604,41.108517 
	C58.232147,42.877605 52.257275,44.212662 46.588856,46.357582 
	C41.949390,48.113140 40.933620,51.443943 42.971786,55.343445 
	C43.300446,56.175571 43.650936,56.672371 44.009377,57.464653 
	C44.023739,57.957077 44.030144,58.154030 44.081707,58.546875 
	C44.126869,58.742771 43.782230,58.953526 43.782230,58.953526 
	C43.782230,58.953526 43.472439,58.696186 43.236122,58.922874 
	C42.668228,59.704052 42.336647,60.258541 41.773869,60.986008 
	C41.268715,61.431816 40.994762,61.704655 40.367783,62.015381 
	C37.345989,61.708447 34.677223,61.363617 32.008457,61.018791 
	C32.007603,57.641136 32.006744,54.263481 32.367508,50.402561 
	C33.720730,49.392647 34.737782,48.908455 35.699532,48.332008 
	C39.872787,45.830647 43.764374,42.527241 48.262272,40.986366 
	C53.506149,39.189938 59.274929,38.925724 64.815941,37.996651 
z"/>
<path fill="#AB1D30" opacity="1.000000" stroke="none" 
	d="
M32.006111,61.485462 
	C34.677223,61.363617 37.345989,61.708447 40.429298,62.404572 
	C41.897266,64.467415 42.950695,66.178963 44.039017,68.252403 
	C41.679615,71.468018 39.285316,74.321732 36.083153,78.138321 
	C38.507805,77.903229 39.303955,77.826035 39.999321,78.116837 
	C38.262928,79.328568 36.627312,80.172295 34.966106,81.003067 
	C34.940517,80.990112 35.018902,80.989708 34.990971,81.387939 
	C34.961502,82.587341 34.959965,83.388504 34.958427,84.189674 
	C31.359747,85.243347 32.091976,82.405907 32.058155,80.705826 
	C31.933851,74.456703 32.005718,68.203690 32.006111,61.485462 
z"/>
<path fill="#A7192F" opacity="1.000000" stroke="none" 
	d="
M64.885696,37.596340 
	C59.274929,38.925724 53.506149,39.189938 48.262272,40.986366 
	C43.764374,42.527241 39.872787,45.830647 35.699532,48.332008 
	C34.737782,48.908455 33.720730,49.392647 32.372326,49.943031 
	C32.016171,46.956154 32.016815,43.945545 32.026161,40.484711 
	C32.034855,40.034489 32.532425,40.014687 32.781517,40.003799 
	C42.151070,38.639656 51.275940,37.314709 60.386131,35.895550 
	C61.466068,35.727322 62.465706,35.043652 63.751434,34.305534 
	C64.000298,34.012154 64.410316,33.984203 64.615387,33.971268 
	C64.865456,35.037563 64.910454,36.116795 64.885696,37.596340 
z"/>
<path fill="#690C18" opacity="1.000000" stroke="none" 
	d="
M34.991695,81.016014 
	C36.627312,80.172295 38.262928,79.328568 40.215675,77.982628 
	C43.842613,74.877785 47.152420,72.275162 50.907581,69.322334 
	C54.284142,70.067154 56.217960,72.682106 55.765690,77.266815 
	C50.985844,75.945351 46.803558,76.147781 43.733559,81.180008 
	C42.375160,82.665077 41.279236,83.966629 40.183311,85.268188 
	C38.679321,84.999557 37.175331,84.730927 35.314884,84.325989 
	C34.959965,83.388504 34.961502,82.587341 34.983208,81.393661 
	C35.003372,81.001160 34.991695,81.016014 34.991695,81.016014 
z"/>
<path fill="#2267B6" opacity="1.000000" stroke="none" 
	d="
M90.053749,87.096077 
	C88.321579,87.731934 86.606827,88.853302 84.854095,88.916176 
	C78.614296,89.140007 72.361580,89.003601 65.658279,88.999435 
	C65.130249,88.549446 65.057686,88.103615 64.983894,87.111954 
	C64.982658,86.566139 65.046364,86.117790 65.259003,86.076279 
	C65.471642,86.034760 65.895065,85.942337 66.245857,86.089859 
	C69.062370,86.149193 71.528099,86.060997 74.457260,85.977097 
	C79.965050,86.352951 85.009399,86.724510 90.053749,87.096077 
z"/>
<path fill="#AB1D30" opacity="1.000000" stroke="none" 
	d="
M40.538887,85.422203 
	C41.279236,83.966629 42.375160,82.665077 44.137390,81.222000 
	C48.509796,82.057487 52.215893,83.034500 55.971550,84.204353 
	C56.021103,84.397194 56.084629,84.790314 56.084629,84.790314 
	C51.021240,85.052284 45.957855,85.314247 40.538887,85.422203 
z"/>
<path fill="#660B18" opacity="1.000000" stroke="none" 
	d="
M56.512619,84.844559 
	C56.084629,84.790314 56.021103,84.397194 56.049107,83.895470 
	C56.404064,82.860382 56.731018,82.327019 57.514175,81.830505 
	C59.195148,81.794456 60.419914,81.721558 61.710213,81.535370 
	C61.775738,81.422089 62.029095,81.355537 62.029095,81.355537 
	C62.029095,81.355537 62.239796,81.511177 62.539757,81.771851 
	C63.141781,82.989281 63.443844,83.946030 63.556999,84.934700 
	C63.368092,84.966621 63.012436,85.109200 63.012436,85.109200 
	C60.988491,85.039062 58.964550,84.968933 56.512619,84.844559 
z"/>
<path fill="#AB1D30" opacity="1.000000" stroke="none" 
	d="
M63.107147,85.366699 
	C63.012436,85.109200 63.368092,84.966621 63.885765,84.955582 
	C64.621338,84.951584 64.839233,84.958611 65.037949,84.986435 
	C65.018776,85.007240 65.030212,84.952072 65.027847,85.243591 
	C65.032448,85.729332 65.039406,85.923561 65.046364,86.117790 
	C65.046364,86.117790 64.982658,86.566139 64.909760,86.780479 
	C64.291855,86.537941 63.746853,86.081070 63.107147,85.366699 
z"/>
<path fill="#216BBC" opacity="1.000000" stroke="none" 
	d="
M66.016312,39.028133 
	C70.338997,38.519394 74.756874,37.199955 78.961838,37.693733 
	C85.122841,38.417202 91.131371,40.439110 97.596840,41.922798 
	C98.003113,46.712528 98.038177,51.487217 98.026756,56.261799 
	C98.010696,62.972290 97.614883,63.382347 90.117386,63.821388 
	C88.078476,63.177902 86.759178,62.718037 85.135361,62.095833 
	C81.781189,60.597260 80.939369,58.678677 83.327515,55.844315 
	C83.536995,55.547066 83.558441,55.322933 83.359375,54.758797 
	C83.042160,54.016354 82.837807,53.602005 83.023201,53.145836 
	C87.552406,52.485966 87.916473,49.834759 85.057556,47.915886 
	C81.234154,45.349667 76.643700,43.929268 72.390991,41.998421 
	C70.256561,41.029331 68.140617,40.019527 66.016312,39.028133 
z"/>
<path fill="#1C58A1" opacity="1.000000" stroke="none" 
	d="
M90.446686,87.078499 
	C85.009399,86.724510 79.965050,86.352951 74.636551,85.688889 
	C74.901245,83.930550 75.450089,82.464699 76.004944,80.755936 
	C76.010963,80.513008 76.030075,80.027382 76.428139,79.984467 
	C79.520088,79.649185 82.213966,79.356827 85.081291,79.298576 
	C85.816544,80.061630 86.378349,80.590584 87.071625,81.389130 
	C87.846008,82.092468 88.488937,82.526215 89.491699,82.977188 
	C91.131660,81.620232 92.411797,80.246040 93.691933,78.871841 
	C94.294945,79.120018 94.897949,79.368195 95.755829,80.210205 
	C95.998207,81.864922 95.985725,82.925819 95.720871,84.167511 
	C94.969894,85.222313 94.471283,86.096298 93.972664,86.970291 
	C93.972664,86.970291 93.979767,86.992256 93.986008,86.980759 
	C92.941376,86.999817 91.890503,87.030373 90.446686,87.078499 
z"/>
<path fill="#2367B2" opacity="1.000000" stroke="none" 
	d="
M85.439873,62.258175 
	C86.759178,62.718037 88.078476,63.177902 89.702026,63.826241 
	C91.020058,64.759964 91.939957,65.717712 93.063644,66.214279 
	C98.390121,68.568100 99.109680,70.313370 96.788589,76.625359 
	C95.081604,75.764313 93.415489,74.923889 91.118744,73.903824 
	C89.186668,72.445175 87.885216,71.166161 86.459435,69.470467 
	C86.036690,66.788574 85.738281,64.523376 85.439873,62.258175 
z"/>
<path fill="#A9C8DB" opacity="1.000000" stroke="none" 
	d="
M86.583771,69.887154 
	C87.885216,71.166161 89.186668,72.445175 90.768417,73.857040 
	C91.077805,74.687790 91.106880,75.385674 90.931976,76.684677 
	C90.568863,77.454628 90.409729,77.623451 89.960609,77.602768 
	C88.501312,76.787453 87.332008,76.161652 85.973625,75.293434 
	C84.261620,73.028282 82.738693,71.005539 81.593079,69.070206 
	C83.508171,69.400803 85.045975,69.643974 86.583771,69.887154 
z"/>
<path fill="#A9C8DB" opacity="1.000000" stroke="none" 
	d="
M93.729271,78.726807 
	C92.411797,80.246040 91.131660,81.620232 89.429901,82.684013 
	C88.713364,81.902115 88.418427,81.430618 88.184357,80.674637 
	C88.913673,79.524185 89.582138,78.658234 90.250610,77.792274 
	C90.409729,77.623451 90.568863,77.454628 90.966629,77.032501 
	C91.476929,76.848686 91.744461,76.931496 92.408875,77.308563 
	C93.193314,77.844063 93.576759,78.098633 93.960197,78.353210 
	C93.960197,78.353210 93.766609,78.581772 93.729271,78.726807 
z"/>
<path fill="#2267B6" opacity="1.000000" stroke="none" 
	d="
M94.324883,86.949585 
	C94.471283,86.096298 94.969894,85.222313 96.055817,84.169907 
	C97.088760,83.988304 97.534386,83.985130 97.980011,83.981949 
	C96.879044,84.964264 95.778069,85.946571 94.324883,86.949585 
z"/>
<path fill="#2367B2" opacity="1.000000" stroke="none" 
	d="
M97.975891,83.630157 
	C97.534386,83.985130 97.088760,83.988304 96.308182,83.989098 
	C95.985725,82.925819 95.998207,81.864922 96.017899,80.406448 
	C96.673988,81.098694 97.322876,82.188530 97.975891,83.630157 
z"/>
<path fill="#2367B2" opacity="1.000000" stroke="none" 
	d="
M93.738098,78.093033 
	C93.576759,78.098633 93.193314,77.844063 92.618851,77.301147 
	C92.790550,77.286163 93.153275,77.559517 93.738098,78.093033 
z"/>
<path fill="#2373C6" opacity="1.000000" stroke="none" 
	d="
M65.885941,39.200649 
	C68.140617,40.019527 70.256561,41.029331 72.390991,41.998421 
	C76.643700,43.929268 81.234154,45.349667 85.057556,47.915886 
	C87.916473,49.834759 87.552406,52.485966 82.689087,53.020142 
	C79.090805,51.228642 76.332184,49.230572 73.264595,48.007366 
	C72.446381,47.681099 70.356003,49.499630 69.473984,50.767696 
	C68.937538,51.538933 69.595734,53.141125 69.452301,54.602478 
	C69.013733,54.993324 68.840172,55.151741 68.363029,55.292007 
	C67.086021,55.503830 66.112602,55.733799 65.079292,55.503296 
	C64.949844,50.370117 64.880280,45.697411 64.810715,41.024704 
	C64.868279,40.852970 64.925850,40.681240 65.068436,40.251457 
	C65.373344,39.805283 65.574051,39.598537 65.885941,39.200649 
z"/>
<path fill="#E5D0D3" opacity="1.000000" stroke="none" 
	d="
M44.001423,57.169174 
	C43.650936,56.672371 43.300446,56.175571 43.275612,55.171257 
	C45.633411,53.573269 47.596333,51.813549 49.718582,51.594002 
	C51.575462,51.401905 52.761810,51.837444 53.800583,49.644352 
	C54.229488,48.738827 56.984821,48.490997 58.520557,48.785683 
	C59.087345,48.894444 59.356876,51.410809 59.456505,52.850216 
	C59.552898,54.242847 59.256443,55.662670 59.222610,56.047089 
	C61.572151,56.621849 62.823147,56.927876 63.930519,57.526539 
	C62.302509,59.098289 60.818115,60.377411 59.582146,61.442459 
	C57.603252,61.442459 55.518417,61.442459 52.746819,61.442459 
	C54.342617,63.209602 55.158997,64.113640 55.526764,65.016937 
	C51.851311,65.013359 48.624466,65.010506 45.183601,64.806282 
	C44.950111,63.764561 44.930641,62.924221 45.212364,61.968735 
	C45.901943,60.928429 46.290329,60.003258 46.678715,59.078087 
	C45.609955,58.950787 44.541199,58.823486 43.472439,58.696186 
	C43.472439,58.696186 43.782230,58.953526 43.782230,58.953526 
	C43.782230,58.953526 44.126869,58.742771 44.420784,58.757545 
	C45.417301,58.179806 46.119907,57.587296 46.822514,56.994781 
	C45.882149,57.052914 44.941788,57.111046 44.001423,57.169174 
z"/>
<path fill="#BD2138" opacity="1.000000" stroke="none" 
	d="
M64.074142,57.233906 
	C62.823147,56.927876 61.572151,56.621849 59.222610,56.047089 
	C59.256443,55.662670 59.552898,54.242847 59.456505,52.850216 
	C59.356876,51.410809 59.087345,48.894444 58.520557,48.785683 
	C56.984821,48.490997 54.229488,48.738827 53.800583,49.644352 
	C52.761810,51.837444 51.575462,51.401905 49.718582,51.594002 
	C47.596333,51.813549 45.633411,53.573269 43.297440,54.835934 
	C40.933620,51.443943 41.949390,48.113140 46.588856,46.357582 
	C52.257275,44.212662 58.232147,42.877605 64.442604,41.108517 
	C64.880280,45.697411 64.949844,50.370117 65.028496,55.746254 
	C65.037590,56.449680 64.865753,56.915077 64.670807,57.002136 
	C64.475868,57.089199 64.074142,57.233906 64.074142,57.233906 
z"/>
<path fill="#831020" opacity="1.000000" stroke="none" 
	d="
M44.911171,62.083878 
	C44.930641,62.924221 44.950111,63.764561 45.056885,65.119858 
	C44.764164,66.386711 44.384140,67.138603 44.004120,67.890503 
	C42.950695,66.178963 41.897266,64.467415 40.782322,62.366684 
	C40.994762,61.704655 41.268715,61.431816 42.097137,61.043819 
	C43.404789,61.313732 44.157982,61.698803 44.911171,62.083878 
z"/>
<path fill="#AB1D30" opacity="1.000000" stroke="none" 
	d="
M45.212364,61.968735 
	C44.157982,61.698803 43.404789,61.313732 42.328331,60.870842 
	C42.336647,60.258541 42.668228,59.704052 43.236122,58.922874 
	C44.541199,58.823486 45.609955,58.950787 46.678715,59.078087 
	C46.290329,60.003258 45.901943,60.928429 45.212364,61.968735 
z"/>
<path fill="#AB1D30" opacity="1.000000" stroke="none" 
	d="
M44.009377,57.464653 
	C44.941788,57.111046 45.882149,57.052914 46.822514,56.994781 
	C46.119907,57.587296 45.417301,58.179806 44.375618,58.561649 
	C44.030144,58.154030 44.023739,57.957077 44.009377,57.464653 
z"/>
<path fill="#DDC8CC" opacity="1.000000" stroke="none" 
	d="
M44.039017,68.252403 
	C44.384140,67.138603 44.764164,66.386711 45.270905,65.321243 
	C48.624466,65.010506 51.851311,65.013359 55.656441,65.305420 
	C57.397530,66.733017 58.560333,67.871399 59.793556,69.400955 
	C60.655914,73.698471 61.447857,77.604820 62.239799,81.511177 
	C62.239796,81.511177 62.029095,81.355537 62.029095,81.355537 
	C62.029095,81.355537 61.775738,81.422089 61.352444,81.354004 
	C59.621651,81.224968 58.314152,81.164009 56.857796,80.835968 
	C56.417057,79.379128 56.125172,78.189377 55.833290,76.999619 
	C56.217960,72.682106 54.284142,70.067154 50.907581,69.322334 
	C47.152420,72.275162 43.842613,74.877785 40.316456,77.614624 
	C39.303955,77.826035 38.507805,77.903229 36.083153,78.138321 
	C39.285316,74.321732 41.679615,71.468018 44.039017,68.252403 
z"/>
<path fill="#690C18" opacity="1.000000" stroke="none" 
	d="
M35.011139,80.995438 
	C35.018902,80.989708 34.940517,80.990112 34.966106,81.003067 
	C34.991695,81.016014 35.003372,81.001160 35.011139,80.995438 
z"/>
<path fill="#951828" opacity="1.000000" stroke="none" 
	d="
M55.765694,77.266815 
	C56.125172,78.189377 56.417057,79.379128 56.864914,81.008987 
	C57.020882,81.449097 57.057968,81.793648 57.057968,81.793648 
	C56.731018,82.327019 56.404064,82.860382 55.999550,83.702629 
	C52.215893,83.034500 48.509796,82.057487 44.399864,81.038483 
	C46.803558,76.147781 50.985844,75.945351 55.765694,77.266815 
z"/>
<path fill="#194F94" opacity="1.000000" stroke="none" 
	d="
M75.998932,80.998856 
	C75.450089,82.464699 74.901245,83.930550 74.173111,85.684601 
	C71.528099,86.060997 69.062370,86.149193 66.210434,85.850494 
	C65.640831,85.167007 65.376160,84.996498 65.030212,84.952072 
	C65.030212,84.952072 65.018776,85.007240 65.004822,84.606842 
	C65.039513,83.448334 65.088158,82.690216 65.512833,82.034332 
	C68.895889,82.893356 71.985298,84.267097 74.711380,80.992958 
	C75.312080,80.994949 75.655510,80.996902 75.998932,80.998856 
z"/>
<path fill="#A72033" opacity="1.000000" stroke="none" 
	d="
M65.027847,85.243591 
	C65.376160,84.996498 65.640831,85.167007 65.859634,85.702972 
	C65.895065,85.942337 65.471642,86.034760 65.259003,86.076279 
	C65.039406,85.923561 65.032448,85.729332 65.027847,85.243591 
z"/>
<path fill="#A72033" opacity="1.000000" stroke="none" 
	d="
M65.136795,81.932098 
	C65.088158,82.690216 65.039513,83.448334 65.023994,84.586044 
	C64.839233,84.958611 64.621338,84.951584 64.074677,84.923660 
	C63.443844,83.946030 63.141781,82.989281 62.539757,81.771851 
	C61.447857,77.604820 60.655914,73.698471 59.915051,69.078354 
	C61.594234,67.258781 63.222336,66.152969 64.907852,65.507431 
	C65.022446,71.289177 65.079620,76.610634 65.136795,81.932098 
z"/>
<path fill="#A72033" opacity="1.000000" stroke="none" 
	d="
M57.514175,81.830505 
	C57.057968,81.793648 57.020882,81.449097 57.013767,81.276077 
	C58.314152,81.164009 59.621651,81.224968 61.286919,81.467293 
	C60.419914,81.721558 59.195148,81.794456 57.514175,81.830505 
z"/>
<path fill="#B6D3E3" opacity="1.000000" stroke="none" 
	d="
M64.865753,56.915077 
	C64.865753,56.915077 65.037590,56.449680 65.088387,56.206726 
	C66.112602,55.733799 67.086021,55.503830 68.504715,55.559700 
	C70.164993,55.940624 71.380013,56.035702 72.595024,56.130783 
	C72.606018,55.935669 72.617012,55.740551 72.628014,55.545433 
	C71.657768,55.153637 70.687531,54.761841 69.717293,54.370049 
	C69.595734,53.141125 68.937538,51.538933 69.473984,50.767696 
	C70.356003,49.499630 72.446381,47.681099 73.264595,48.007366 
	C76.332184,49.230572 79.090805,51.228642 82.299347,53.061962 
	C82.837807,53.602005 83.042160,54.016354 83.270172,54.960617 
	C83.293823,55.490528 83.247147,55.929337 83.247147,55.929337 
	C80.939369,58.678677 81.781189,60.597260 85.135361,62.095833 
	C85.738281,64.523376 86.036690,66.788574 86.459435,69.470467 
	C85.045975,69.643974 83.508171,69.400803 81.484947,68.834938 
	C80.440674,68.307549 79.881821,68.102844 79.135666,67.534439 
	C78.189804,66.404457 77.431259,65.638168 76.710793,64.666138 
	C76.748871,64.460388 76.738121,64.042091 76.843918,63.672256 
	C76.429008,62.847542 75.622391,61.899799 75.430206,62.011284 
	C72.261383,63.849453 70.440475,61.577164 68.350906,59.905571 
	C67.380302,59.129120 66.205566,58.607841 65.069061,57.704475 
	C64.965080,57.263729 64.915413,57.089401 64.865753,56.915077 
z"/>
<path fill="#2373C6" opacity="1.000000" stroke="none" 
	d="
M83.327515,55.844315 
	C83.247147,55.929337 83.293823,55.490528 83.383034,55.288712 
	C83.558441,55.322933 83.536995,55.547066 83.327515,55.844315 
z"/>
<path fill="#184887" opacity="1.000000" stroke="none" 
	d="
M76.004944,80.755936 
	C75.655510,80.996902 75.312080,80.994949 74.609467,80.970322 
	C74.250267,80.947655 74.052582,81.006371 74.086464,80.586876 
	C74.744499,77.000725 75.368645,73.834068 76.003937,71.023232 
	C76.909218,72.201706 77.713821,73.162933 78.719597,73.812820 
	C80.051552,74.673477 81.540825,75.290672 82.561905,76.013641 
	C79.112953,75.817253 76.502762,76.289261 76.030075,80.027382 
	C76.030075,80.027382 76.010963,80.513008 76.004944,80.755936 
z"/>
<path fill="#194F94" opacity="1.000000" stroke="none" 
	d="
M76.428139,79.984467 
	C76.502762,76.289261 79.112953,75.817253 82.829178,76.156265 
	C83.986076,76.663704 84.475121,77.029671 84.955589,77.673462 
	C84.933968,78.322342 84.920914,78.693405 84.907852,79.064468 
	C82.213966,79.356827 79.520088,79.649185 76.428139,79.984467 
z"/>
<path fill="#184887" opacity="1.000000" stroke="none" 
	d="
M85.081291,79.298576 
	C84.920914,78.693405 84.933968,78.322342 85.175133,77.373459 
	C85.656395,76.375710 85.909554,75.955780 86.162704,75.535843 
	C87.332008,76.161652 88.501312,76.787453 89.960617,77.602768 
	C89.582138,78.658234 88.913673,79.524185 87.888000,80.710709 
	C87.333923,81.060699 87.137047,81.090118 86.940163,81.119537 
	C86.378349,80.590584 85.816544,80.061630 85.081291,79.298576 
z"/>
<path fill="#194F94" opacity="1.000000" stroke="none" 
	d="
M87.071625,81.389130 
	C87.137047,81.090118 87.333923,81.060699 87.827148,80.995209 
	C88.418427,81.430618 88.713364,81.902115 89.070084,82.666779 
	C88.488937,82.526215 87.846008,82.092468 87.071625,81.389130 
z"/>
<path fill="#0B2B5F" opacity="1.000000" stroke="none" 
	d="
M85.973625,75.293434 
	C85.909554,75.955780 85.656395,76.375710 85.183701,77.095642 
	C84.475121,77.029671 83.986076,76.663704 83.229767,76.155121 
	C81.540825,75.290672 80.051552,74.673477 78.719597,73.812820 
	C77.713821,73.162933 76.909218,72.201706 76.149986,70.797607 
	C77.297592,69.443489 78.310287,68.670815 79.322975,67.898140 
	C79.881821,68.102844 80.440674,68.307549 81.107651,68.747520 
	C82.738693,71.005539 84.261620,73.028282 85.973625,75.293434 
z"/>
<path fill="#7E1426" opacity="1.000000" stroke="none" 
	d="
M64.670807,57.002136 
	C64.915413,57.089401 64.965080,57.263729 64.997162,58.120258 
	C65.032547,60.450546 65.085533,62.098640 65.077881,64.074356 
	C64.961639,64.617043 64.906036,64.832100 64.850441,65.047157 
	C63.222336,66.152969 61.594234,67.258781 59.844635,68.687195 
	C58.560333,67.871399 57.397530,66.733017 56.105049,65.306152 
	C55.158997,64.113640 54.342617,63.209602 52.746819,61.442459 
	C55.518417,61.442459 57.603252,61.442459 59.582146,61.442459 
	C60.818115,60.377411 62.302509,59.098289 63.930519,57.526539 
	C64.074142,57.233906 64.475868,57.089199 64.670807,57.002136 
z"/>
<path fill="#2460A7" opacity="1.000000" stroke="none" 
	d="
M64.907852,65.507431 
	C64.906036,64.832100 64.961639,64.617043 65.416840,64.206848 
	C68.275551,65.104568 70.734657,66.197441 73.103310,67.647232 
	C72.255043,70.313446 71.331924,72.584831 70.791000,74.943855 
	C70.347252,76.879143 70.358086,78.918671 70.158386,81.006371 
	C70.782143,81.006371 72.417358,81.006371 74.052582,81.006371 
	C74.052582,81.006371 74.250267,80.947655 74.352188,80.970291 
	C71.985298,84.267097 68.895889,82.893356 65.512833,82.034332 
	C65.079620,76.610634 65.022446,71.289177 64.907852,65.507431 
z"/>
<path fill="#B1CEDD" opacity="1.000000" stroke="none" 
	d="
M74.086464,80.586876 
	C72.417358,81.006371 70.782143,81.006371 70.158386,81.006371 
	C70.358086,78.918671 70.347252,76.879143 70.791000,74.943855 
	C71.331924,72.584831 72.255043,70.313446 73.105087,67.626129 
	C73.197327,67.248108 73.165504,67.219261 73.439590,67.161453 
	C73.884415,66.788124 74.055153,66.472610 74.190002,66.153946 
	C74.154106,66.150795 74.159370,66.222656 74.432632,66.162155 
	C74.881920,65.788757 75.057945,65.475876 75.189651,65.166397 
	C75.145332,65.169792 75.155991,65.258057 75.420464,65.247940 
	C76.014198,65.115852 76.343452,64.993866 76.672714,64.871887 
	C77.431259,65.638168 78.189804,66.404457 79.135666,67.534439 
	C78.310287,68.670815 77.297592,69.443489 76.138840,70.441788 
	C75.368645,73.834068 74.744499,77.000725 74.086464,80.586876 
z"/>
<path fill="#09306E" opacity="1.000000" stroke="none" 
	d="
M73.195549,67.269211 
	C70.734657,66.197441 68.275551,65.104568 65.477478,63.879219 
	C65.085533,62.098640 65.032547,60.450546 65.051468,58.386673 
	C66.205566,58.607841 67.380302,59.129120 68.350906,59.905571 
	C70.440475,61.577164 72.261383,63.849453 75.430206,62.011284 
	C75.622391,61.899799 76.429008,62.847542 76.576538,63.712166 
	C75.854240,64.500618 75.505112,64.879341 75.155991,65.258057 
	C75.155991,65.258057 75.145332,65.169792 74.934052,65.253387 
	C74.534973,65.632217 74.347176,65.927437 74.159378,66.222656 
	C74.159370,66.222656 74.154106,66.150795 73.935043,66.240601 
	C73.532494,66.626686 73.348999,66.922974 73.165504,67.219261 
	C73.165504,67.219261 73.197327,67.248108 73.195549,67.269211 
z"/>
<path fill="#2373C6" opacity="1.000000" stroke="none" 
	d="
M69.452301,54.602478 
	C70.687531,54.761841 71.657768,55.153637 72.628014,55.545433 
	C72.617012,55.740551 72.606018,55.935669 72.595024,56.130783 
	C71.380013,56.035702 70.164993,55.940624 68.808304,55.577850 
	C68.840172,55.151741 69.013733,54.993324 69.452301,54.602478 
z"/>
<path fill="#2460A7" opacity="1.000000" stroke="none" 
	d="
M75.420464,65.247940 
	C75.505112,64.879341 75.854240,64.500618 76.470741,64.082001 
	C76.738121,64.042091 76.748871,64.460388 76.710793,64.666138 
	C76.343452,64.993866 76.014198,65.115852 75.420464,65.247940 
z"/>
<path fill="#2460A7" opacity="1.000000" stroke="none" 
	d="
M74.432632,66.162155 
	C74.347176,65.927437 74.534973,65.632217 74.978371,65.249992 
	C75.057945,65.475876 74.881920,65.788757 74.432632,66.162155 
z"/>
<path fill="#2460A7" opacity="1.000000" stroke="none" 
	d="
M73.439590,67.161453 
	C73.348999,66.922974 73.532494,66.626686 73.970932,66.243744 
	C74.055153,66.472610 73.884415,66.788124 73.439590,67.161453 
z"/>
</svg>